{"accessors" : [{"bufferView" : 0, "byteOffset" : 0, "componentType" : 5123, "count" : 276, "type" : "SCALAR", "max" : [239], "min" : [0]}, {"bufferView" : 1, "byteOffset" : 0, "componentType" : 5126, "count" : 240, "type" : "VEC3", "max" : [1.4082720279693604, 162.09312438964844, -0.8854399919509888], "min" : [-1.4082720279693604, 98.86196899414062, -8.074780464172363], "name" : "POSITION"}, {"bufferView" : 1, "byteOffset" : 12, "componentType" : 5126, "count" : 240, "type" : "VEC3", "max" : [0.9397174715995789, 0.6088896989822388, 0.9307827949523926], "min" : [-0.9397173523902893, -0.8348157405853271, -0.9509814977645874], "name" : "NORMAL"}, {"bufferView" : 1, "byteOffset" : 24, "componentType" : 5126, "count" : 240, "type" : "VEC4", "max" : [0.9617748856544495, 0.36242949962615967, -0.2652392089366913, 0], "min" : [-0.9617747664451599, -0.4437759816646576, -0.936699628829956, 0], "name" : "TANGENT"}, {"bufferView" : 1, "byteOffset" : 40, "componentType" : 5126, "count" : 240, "type" : "VEC2", "max" : [0.88303542137146, 0.7654925584793091], "min" : [0.8386611938476562, 0.39030027389526367], "name" : "TEXCOORD_0"}, {"bufferView" : 0, "byteOffset" : 552, "componentType" : 5123, "count" : 1776, "type" : "SCALAR", "max" : [1524], "min" : [0]}, {"bufferView" : 2, "byteOffset" : 0, "componentType" : 5126, "count" : 1525, "type" : "VEC3", "max" : [28.59830665588379, 50.629310607910156, 22.89105987548828], "min" : [-28.59830665588379, -1.2388919591903687, -4.145823001861572], "name" : "POSITION"}, {"bufferView" : 2, "byteOffset" : 12, "componentType" : 5126, "count" : 1525, "type" : "VEC3", "max" : [0.9990607500076294, 0.9952818751335144, 0.9953645467758179], "min" : [-0.9990607500076294, -0.9990442991256714, -0.9996367692947388], "name" : "NORMAL"}, {"bufferView" : 2, "byteOffset" : 24, "componentType" : 5126, "count" : 1525, "type" : "VEC4", "max" : [0.9998967051506042, 0.9988539218902588, 0.9794418811798096, 0], "min" : [-0.9998967051506042, -0.9998102784156799, -0.9995216131210327, 0], "name" : "TANGENT"}, {"bufferView" : 2, "byteOffset" : 40, "componentType" : 5126, "count" : 1525, "type" : "VEC2", "max" : [0.9121831059455872, 0.9550633430480957], "min" : [0.1904529184103012, 0.4505760371685028], "name" : "TEXCOORD_0"}, {"bufferView" : 0, "byteOffset" : 4104, "componentType" : 5123, "count" : 1686, "type" : "SCALAR", "max" : [1444], "min" : [0]}, {"bufferView" : 3, "byteOffset" : 0, "componentType" : 5126, "count" : 1445, "type" : "VEC3", "max" : [32.57968521118164, 151.52951049804688, 16.03091049194336], "min" : [-32.284671783447266, 106.25440979003906, -9.66057300567627], "name" : "POSITION"}, {"bufferView" : 3, "byteOffset" : 12, "componentType" : 5126, "count" : 1445, "type" : "VEC3", "max" : [0.9982515573501587, 0.9966520071029663, 0.9993973970413208], "min" : [-0.9945229291915894, -0.9932904839515686, -0.9994906187057495], "name" : "NORMAL"}, {"bufferView" : 3, "byteOffset" : 24, "componentType" : 5126, "count" : 1445, "type" : "VEC4", "max" : [0.9984093904495239, 0.9832050204277039, 0.9944151043891907, 0], "min" : [-0.9999921917915344, -0.9996663331985474, -0.9980592727661133, 0], "name" : "TANGENT"}, {"bufferView" : 3, "byteOffset" : 40, "componentType" : 5126, "count" : 1445, "type" : "VEC2", "max" : [0.9985833168029785, 1], "min" : [0.17708778381347656, 0.07103137671947479], "name" : "TEXCOORD_0"}, {"bufferView" : 0, "byteOffset" : 7476, "componentType" : 5123, "count" : 3024, "type" : "SCALAR", "max" : [2557], "min" : [0]}, {"bufferView" : 4, "byteOffset" : 0, "componentType" : 5126, "count" : 2558, "type" : "VEC3", "max" : [49.18257141113281, 102.72240447998047, 7.781251907348633], "min" : [-49.18257141113281, 85.75548553466797, -4.021920204162598], "name" : "POSITION"}, {"bufferView" : 4, "byteOffset" : 12, "componentType" : 5126, "count" : 2558, "type" : "VEC3", "max" : [0.999382734298706, 0.9887508153915405, 0.9992059469223022], "min" : [-0.999382734298706, -0.9948559999465942, -0.9995947480201721], "name" : "NORMAL"}, {"bufferView" : 4, "byteOffset" : 24, "componentType" : 5126, "count" : 2558, "type" : "VEC4", "max" : [0.9960520267486572, 0.9986278414726257, 0.9986945390701294, 0], "min" : [-0.996052086353302, -0.9940258264541626, -0.9997562170028687, 0], "name" : "TANGENT"}, {"bufferView" : 4, "byteOffset" : 40, "componentType" : 5126, "count" : 2558, "type" : "VEC2", "max" : [0.927200973033905, 0.44314369559288025], "min" : [0.7217163443565369, 0.03966795653104782], "name" : "TEXCOORD_0"}, {"bufferView" : 0, "byteOffset" : 13524, "componentType" : 5123, "count" : 2178, "type" : "SCALAR", "max" : [1891], "min" : [0]}, {"bufferView" : 5, "byteOffset" : 0, "componentType" : 5126, "count" : 1892, "type" : "VEC3", "max" : [19.67047691345215, 104.1436767578125, 15.595609664916992], "min" : [-19.708463668823242, 50.143218994140625, -7.267080783843994], "name" : "POSITION"}, {"bufferView" : 5, "byteOffset" : 12, "componentType" : 5126, "count" : 1892, "type" : "VEC3", "max" : [0.9979206323623657, 0.9997946619987488, 0.9995201230049133], "min" : [-0.9981043934822083, -0.999480664730072, -0.9992209076881409], "name" : "NORMAL"}, {"bufferView" : 5, "byteOffset" : 24, "componentType" : 5126, "count" : 1892, "type" : "VEC4", "max" : [0.9999769330024719, 0.9909003376960754, 0.9997645020484924, 0], "min" : [-0.9993263483047485, -0.9902377724647522, -0.9989867210388184, 0], "name" : "TANGENT"}, {"bufferView" : 5, "byteOffset" : 40, "componentType" : 5126, "count" : 1892, "type" : "VEC2", "max" : [0.9980946779251099, 0.9294219017028809], "min" : [0, 0], "name" : "TEXCOORD_0"}, {"bufferView" : 0, "byteOffset" : 17880, "componentType" : 5123, "count" : 834, "type" : "SCALAR", "max" : [712], "min" : [0]}, {"bufferView" : 6, "byteOffset" : 0, "componentType" : 5126, "count" : 713, "type" : "VEC3", "max" : [6.67952299118042, 164.16757202148438, 12.073186874389648], "min" : [-6.680675029754639, 150.47689819335938, -3.3061931133270264], "name" : "POSITION"}, {"bufferView" : 6, "byteOffset" : 12, "componentType" : 5126, "count" : 713, "type" : "VEC3", "max" : [0.9984040856361389, 0.9937829971313477, 0.9999260306358337], "min" : [-0.9984040260314941, -0.9367783665657043, -0.9076040387153625], "name" : "NORMAL"}, {"bufferView" : 6, "byteOffset" : 24, "componentType" : 5126, "count" : 713, "type" : "VEC4", "max" : [1.0000044107437134, 0.8559725880622864, 0.9972577095031738, 0], "min" : [-1.0000044107437134, -0.8561151623725891, -0.9972578287124634, 0], "name" : "TANGENT"}, {"bufferView" : 6, "byteOffset" : 40, "componentType" : 5126, "count" : 713, "type" : "VEC2", "max" : [0.9792095422744751, 0.9662137031555176], "min" : [0, 0], "name" : "TEXCOORD_0"}, {"bufferView" : 0, "byteOffset" : 19548, "componentType" : 5123, "count" : 1200, "type" : "SCALAR", "max" : [999], "min" : [0]}, {"bufferView" : 7, "byteOffset" : 0, "componentType" : 5126, "count" : 1000, "type" : "VEC3", "max" : [8.666114807128906, 189.29519653320312, 12.682527542114258], "min" : [-8.667264938354492, 154.01792907714844, -19.960113525390625], "name" : "POSITION"}, {"bufferView" : 7, "byteOffset" : 12, "componentType" : 5126, "count" : 1000, "type" : "VEC3", "max" : [0.9958688616752625, 0.9706829190254211, 0.9959213733673096], "min" : [-0.9958688616752625, -0.988109290599823, -0.7309315800666809], "name" : "NORMAL"}, {"bufferView" : 7, "byteOffset" : 24, "componentType" : 5126, "count" : 1000, "type" : "VEC4", "max" : [1.0000044107437134, 0.9743394255638123, 0.9980235695838928, 0], "min" : [-1.0000044107437134, -0.9747663736343384, -0.9980241656303406, 0], "name" : "TANGENT"}, {"bufferView" : 7, "byteOffset" : 40, "componentType" : 5126, "count" : 1000, "type" : "VEC2", "max" : [0.9847221374511719, 0.884899377822876], "min" : [0, 0], "name" : "TEXCOORD_0"}, {"bufferView" : 0, "byteOffset" : 21948, "componentType" : 5123, "count" : 288, "type" : "SCALAR", "max" : [238], "min" : [0]}, {"bufferView" : 8, "byteOffset" : 0, "componentType" : 5126, "count" : 239, "type" : "VEC3", "max" : [44.820777893066406, 121.13887023925781, 1.9384080171585083], "min" : [-44.820777893066406, 101.48971557617188, -7.8923540115356445], "name" : "POSITION"}, {"bufferView" : 8, "byteOffset" : 12, "componentType" : 5126, "count" : 239, "type" : "VEC3", "max" : [0.8357837200164795, 0.7269589304924011, 0.9415513277053833], "min" : [-0.8357834815979004, -0.932305097579956, -0.9768513441085815], "name" : "NORMAL"}, {"bufferView" : 8, "byteOffset" : 24, "componentType" : 5126, "count" : 239, "type" : "VEC4", "max" : [0.9873502850532532, 0.414945125579834, 0.900144100189209, 0], "min" : [-0.9873505234718323, -0.9309137463569641, -0.6175093054771423, 0], "name" : "TANGENT"}, {"bufferView" : 8, "byteOffset" : 40, "componentType" : 5126, "count" : 239, "type" : "VEC2", "max" : [0.17247235774993896, 0.9770427346229553], "min" : [0, 0.9009091854095459], "name" : "TEXCOORD_0"}], "asset" : {"generator" : "Aspose.3D 22.10", "version" : "2.0"}, "buffers" : [{"uri" : "buffer.bin", "byteLength" : 563136}], "bufferViews" : [{"buffer" : 0, "byteOffset" : 0, "byteLength" : 22524, "target" : 34963}, {"buffer" : 0, "byteOffset" : 22528, "byteLength" : 13248, "byteStride" : 48, "target" : 34962}, {"buffer" : 0, "byteOffset" : 35780, "byteLength" : 85248, "byteStride" : 48, "target" : 34962}, {"buffer" : 0, "byteOffset" : 121032, "byteLength" : 80928, "byteStride" : 48, "target" : 34962}, {"buffer" : 0, "byteOffset" : 201964, "byteLength" : 145152, "byteStride" : 48, "target" : 34962}, {"buffer" : 0, "byteOffset" : 347120, "byteLength" : 104544, "byteStride" : 48, "target" : 34962}, {"buffer" : 0, "byteOffset" : 451668, "byteLength" : 40032, "byteStride" : 48, "target" : 34962}, {"buffer" : 0, "byteOffset" : 491704, "byteLength" : 57600, "byteStride" : 48, "target" : 34962}, {"buffer" : 0, "byteOffset" : 549308, "byteLength" : 13824, "byteStride" : 48, "target" : 34962}], "images" : [{"uri" : "textures/blinn1_normal.jpeg"}, {"uri" : "textures/blinn1_metallicRoughness.png"}, {"uri" : "textures/blinn1_baseColor.jpeg"}], "materials" : [{"name" : "blinn1", "pbrMetallicRoughness" : {"baseColorFactor" : [1, 1, 1, 1], "baseColorTexture" : {"index" : 2, "texCoord" : 0}, "metallicFactor" : 1, "roughnessFactor" : 1, "metallicRoughnessTexture" : {"index" : 1, "texCoord" : 0}}, "normalTexture" : {"index" : 0, "texCoord" : 0, "scale" : 1}, "occlusionTexture" : {"index" : 1, "texCoord" : 0, "strength" : 0}, "emissiveFactor" : [0, 0, 0], "alphaMode" : "OPAQUE", "doubleSided" : true}, {"name" : "blinn1", "pbrMetallicRoughness" : {"baseColorFactor" : [1, 1, 1, 1], "baseColorTexture" : {"index" : 2, "texCoord" : 0}, "metallicFactor" : 1, "roughnessFactor" : 1, "metallicRoughnessTexture" : {"index" : 1, "texCoord" : 0}}, "normalTexture" : {"index" : 0, "texCoord" : 0, "scale" : 1}, "occlusionTexture" : {"index" : 1, "texCoord" : 0, "strength" : 0}, "emissiveFactor" : [0, 0, 0], "alphaMode" : "OPAQUE", "doubleSided" : true}, {"name" : "blinn1", "pbrMetallicRoughness" : {"baseColorFactor" : [1, 1, 1, 1], "baseColorTexture" : {"index" : 2, "texCoord" : 0}, "metallicFactor" : 1, "roughnessFactor" : 1, "metallicRoughnessTexture" : {"index" : 1, "texCoord" : 0}}, "normalTexture" : {"index" : 0, "texCoord" : 0, "scale" : 1}, "occlusionTexture" : {"index" : 1, "texCoord" : 0, "strength" : 0}, "emissiveFactor" : [0, 0, 0], "alphaMode" : "OPAQUE", "doubleSided" : true}, {"name" : "blinn1", "pbrMetallicRoughness" : {"baseColorFactor" : [1, 1, 1, 1], "baseColorTexture" : {"index" : 2, "texCoord" : 0}, "metallicFactor" : 1, "roughnessFactor" : 1, "metallicRoughnessTexture" : {"index" : 1, "texCoord" : 0}}, "normalTexture" : {"index" : 0, "texCoord" : 0, "scale" : 1}, "occlusionTexture" : {"index" : 1, "texCoord" : 0, "strength" : 0}, "emissiveFactor" : [0, 0, 0], "alphaMode" : "OPAQUE", "doubleSided" : true}, {"name" : "blinn1", "pbrMetallicRoughness" : {"baseColorFactor" : [1, 1, 1, 1], "baseColorTexture" : {"index" : 2, "texCoord" : 0}, "metallicFactor" : 1, "roughnessFactor" : 1, "metallicRoughnessTexture" : {"index" : 1, "texCoord" : 0}}, "normalTexture" : {"index" : 0, "texCoord" : 0, "scale" : 1}, "occlusionTexture" : {"index" : 1, "texCoord" : 0, "strength" : 0}, "emissiveFactor" : [0, 0, 0], "alphaMode" : "OPAQUE", "doubleSided" : true}, {"name" : "blinn1", "pbrMetallicRoughness" : {"baseColorFactor" : [1, 1, 1, 1], "baseColorTexture" : {"index" : 2, "texCoord" : 0}, "metallicFactor" : 1, "roughnessFactor" : 1, "metallicRoughnessTexture" : {"index" : 1, "texCoord" : 0}}, "normalTexture" : {"index" : 0, "texCoord" : 0, "scale" : 1}, "occlusionTexture" : {"index" : 1, "texCoord" : 0, "strength" : 0}, "emissiveFactor" : [0, 0, 0], "alphaMode" : "OPAQUE", "doubleSided" : true}, {"name" : "blinn1", "pbrMetallicRoughness" : {"baseColorFactor" : [1, 1, 1, 1], "baseColorTexture" : {"index" : 2, "texCoord" : 0}, "metallicFactor" : 1, "roughnessFactor" : 1, "metallicRoughnessTexture" : {"index" : 1, "texCoord" : 0}}, "normalTexture" : {"index" : 0, "texCoord" : 0, "scale" : 1}, "occlusionTexture" : {"index" : 1, "texCoord" : 0, "strength" : 0}, "emissiveFactor" : [0, 0, 0], "alphaMode" : "OPAQUE", "doubleSided" : true}, {"name" : "blinn1", "pbrMetallicRoughness" : {"baseColorFactor" : [1, 1, 1, 1], "baseColorTexture" : {"index" : 2, "texCoord" : 0}, "metallicFactor" : 1, "roughnessFactor" : 1, "metallicRoughnessTexture" : {"index" : 1, "texCoord" : 0}}, "normalTexture" : {"index" : 0, "texCoord" : 0, "scale" : 1}, "occlusionTexture" : {"index" : 1, "texCoord" : 0, "strength" : 0}, "emissiveFactor" : [0, 0, 0], "alphaMode" : "OPAQUE", "doubleSided" : true}], "meshes" : [{"primitives" : [{"attributes" : {"POSITION" : 1, "NORMAL" : 2, "TANGENT" : 3, "TEXCOORD_0" : 4}, "indices" : 0, "material" : 0, "mode" : 4}]}, {"primitives" : [{"attributes" : {"POSITION" : 6, "NORMAL" : 7, "TANGENT" : 8, "TEXCOORD_0" : 9}, "indices" : 5, "material" : 1, "mode" : 4}]}, {"primitives" : [{"attributes" : {"POSITION" : 11, "NORMAL" : 12, "TANGENT" : 13, "TEXCOORD_0" : 14}, "indices" : 10, "material" : 2, "mode" : 4}]}, {"primitives" : [{"attributes" : {"POSITION" : 16, "NORMAL" : 17, "TANGENT" : 18, "TEXCOORD_0" : 19}, "indices" : 15, "material" : 3, "mode" : 4}]}, {"primitives" : [{"attributes" : {"POSITION" : 21, "NORMAL" : 22, "TANGENT" : 23, "TEXCOORD_0" : 24}, "indices" : 20, "material" : 4, "mode" : 4}]}, {"primitives" : [{"attributes" : {"POSITION" : 26, "NORMAL" : 27, "TANGENT" : 28, "TEXCOORD_0" : 29}, "indices" : 25, "material" : 5, "mode" : 4}]}, {"primitives" : [{"attributes" : {"POSITION" : 31, "NORMAL" : 32, "TANGENT" : 33, "TEXCOORD_0" : 34}, "indices" : 30, "material" : 6, "mode" : 4}]}, {"primitives" : [{"attributes" : {"POSITION" : 36, "NORMAL" : 37, "TANGENT" : 38, "TEXCOORD_0" : 39}, "indices" : 35, "material" : 7, "mode" : 4}]}], "nodes" : [{"mesh" : 0, "name" : "Retopo_V1:Column1_blinn1_0"}, {"children" : [0], "name" : "Retopo_V1:Column1"}, {"mesh" : 1, "name" : "Retopo_V1:Legs1_blinn1_0"}, {"children" : [2], "name" : "Retopo_V1:Legs1"}, {"mesh" : 2, "name" : "Retopo_V1:Torso_blinn1_0"}, {"children" : [4], "name" : "Retopo_V1:Torso"}, {"mesh" : 3, "name" : "Retopo_V1:Hands1_blinn1_0"}, {"children" : [6], "name" : "Retopo_V1:Hands1"}, {"mesh" : 4, "name" : "Retopo_V1:Pant_blinn1_0"}, {"children" : [8], "name" : "Retopo_V1:Pant"}, {"mesh" : 5, "name" : "Retopo_V1:Bot_head_blinn1_0"}, {"children" : [10], "name" : "Retopo_V1:Bot_head"}, {"mesh" : 6, "name" : "Retopo_V1:Top_Head_blinn1_0"}, {"children" : [12], "name" : "Retopo_V1:Top_Head"}, {"mesh" : 7, "name" : "Forearms1_blinn1_0"}, {"children" : [14], "name" : "Forearms1"}, {"children" : [1, 3, 5, 7, 9, 11, 13, 15], "name" : "RootNode"}, {"children" : [16], "matrix" : [1, 0, 0, 0, 0, 0, 1, 0, 0, -1, 0, 0, 0, 0, 0, 1], "name" : "365cc85230164909a1a614390cc9db71.fbx"}, {"children" : [17], "matrix" : [1, 0, 0, 0, 0, 2.220446049250313E-16, -1, 0, 0, 1, 2.220446049250313E-16, 0, 0, 0, 0, 1], "name" : "Sketchfab_model"}, {"children" : [18], "name" : "scene.gltf"}], "samplers" : [{"magFilter" : 9729, "minFilter" : 9987, "wrapS" : 10497, "wrapT" : 10497}, {"magFilter" : 9729, "minFilter" : 9987, "wrapS" : 10497, "wrapT" : 10497}, {"magFilter" : 9729, "minFilter" : 9987, "wrapS" : 10497, "wrapT" : 10497}], "scene" : 0, "scenes" : [{"nodes" : [19]}], "textures" : [{"sampler" : 0, "source" : 0, "name" : ""}, {"sampler" : 1, "source" : 1, "name" : ""}, {"sampler" : 2, "source" : 2, "name" : ""}]}